# xmcd
#
# Track frame offsets: 
#        150
#        19190
#        40932
#        54020
#        71272
#        91257
#        107742
#        125270
#        148277
#        165422
#        191017
#        205065
#        221790
#        235330
#
# Disc length: 3390 seconds
#
# Revision: 2
# Processed by: cddbd v1.5.2PL0 Copyright (c) Steve Scherf et al.
# Submitted via: ExactAudioCopy v0.99pb5
#
DISCID=c00d3c0e
DTITLE=Sonny Boy Williamson - Sonny Boy Williamson in Europe
DYEAR=1995
DGENRE=Blues
TTITLE0=I'm Trying to Make London My Home
TTITLE1=I Don't Know
TTITLE2=Sonny Boy's Harmonica Blues
TTITLE3=Had My Fun
TTITLE4=Dissatisfied
TTITLE5=Bye Bye Bird
TTITLE6=Mister Downchild
TTITLE7=23 Hours Too Long
TTITLE8=Pontiac Blues
TTITLE9=Take It Easy Baby [Version 1]
TTITLE10=Out On The Water Coast
TTITLE11=I Don't Care No More
TTITLE12=Do The Weston
TTITLE13=Take It Easy Baby [Version 2]
EXTD=
EXTT0=
EXTT1=
EXTT2=
EXTT3=
EXTT4=
EXTT5=
EXTT6=
EXTT7=
EXTT8=
EXTT9=
EXTT10=
EXTT11=
EXTT12=
EXTT13=
PLAYORDER=
